<?xml version="1.0" standalone="no"?>
<!DOCTYPE svg PUBLIC "-//W3C//DTD SVG 20010904//EN"
 "http://www.w3.org/TR/2001/REC-SVG-20010904/DTD/svg10.dtd">
<svg version="1.0" xmlns="http://www.w3.org/2000/svg"
 width="224.000000pt" height="314.000000pt" viewBox="0 0 224.000000 314.000000"
 preserveAspectRatio="xMidYMid meet">
<metadata>
Created by potrace 1.16, written by Peter Selinger 2001-2019
</metadata>
<g transform="translate(0.000000,314.000000) scale(0.100000,-0.100000)"
fill="#ffffff" stroke="none">
<path d="M1795 2873 c-143 -30 -282 -101 -377 -191 -56 -53 -57 -53 -82 -37
-30 20 -31 27 -11 58 13 21 13 27 -8 67 -19 38 -28 46 -62 53 -21 4 -44 6 -50
3 -6 -2 -37 -38 -69 -79 -57 -75 -58 -76 -45 -112 17 -47 35 -61 85 -69 35 -5
44 -2 63 20 l22 25 29 -21 c19 -14 27 -26 23 -34 -32 -50 -158 -206 -167 -206
-6 0 -22 9 -36 19 -22 18 -23 22 -11 44 29 54 -12 116 -79 124 l-45 5 -57 -78
c-32 -43 -58 -83 -58 -88 0 -6 10 -29 23 -51 21 -37 26 -40 71 -43 43 -3 52 0
70 22 l21 26 33 -21 c17 -12 32 -25 32 -30 0 -4 -13 -23 -28 -41 -16 -18 -48
-61 -71 -95 -23 -35 -45 -63 -49 -63 -6 0 -26 12 -60 35 -1 1 5 16 15 33 16
28 16 32 -2 71 -12 28 -26 43 -42 46 -83 17 -72 23 -141 -72 -29 -40 -52 -77
-52 -83 0 -6 9 -28 20 -49 17 -34 25 -39 66 -46 39 -5 50 -3 68 14 27 26 34
26 65 2 l25 -19 -75 -111 c-40 -60 -78 -110 -84 -110 -5 0 -21 8 -34 18 -24
18 -24 20 -7 45 16 26 16 28 -6 68 -17 31 -32 44 -57 51 -55 14 -73 2 -129
-82 l-53 -79 20 -41 c13 -25 30 -42 44 -45 69 -14 78 -13 97 12 18 22 22 23
50 12 16 -7 30 -19 30 -27 0 -14 -91 -164 -116 -192 -10 -11 -17 -10 -43 5
-31 18 -39 38 -21 49 17 10 11 38 -15 77 -20 30 -31 36 -67 40 -29 3 -46 -1
-56 -12 -33 -36 -102 -136 -102 -148 0 -7 9 -30 20 -52 18 -34 25 -40 67 -46
44 -6 48 -5 73 26 l27 33 31 -23 c18 -13 32 -26 32 -28 0 -14 -136 -212 -146
-212 -6 0 -19 9 -28 19 -15 17 -16 24 -6 53 11 29 10 39 -4 66 -21 40 -47 54
-94 50 -34 -3 -41 -9 -88 -82 -56 -85 -58 -106 -13 -155 27 -29 103 -30 119
-1 13 24 28 25 58 2 l22 -17 -31 -50 c-53 -84 -67 -121 -59 -164 15 -82 34
-100 194 -181 168 -85 249 -149 294 -234 26 -50 27 -56 32 -261 l5 -210 325 0
325 0 6 195 c3 107 13 248 22 312 9 64 21 168 28 230 8 90 203 1004 279 1313
5 22 18 81 30 130 11 50 47 207 80 349 33 143 60 260 60 262 0 5 -64 24 -79
23 -9 0 -47 -7 -86 -16z m-222 -295 c55 -29 65 -97 19 -141 -39 -37 -84 -36
-123 2 -74 75 11 189 104 139z m-199 -279 c14 -7 32 -27 41 -45 44 -93 -72
-168 -146 -95 -41 41 -40 90 2 125 33 28 64 32 103 15z m-201 -280 c29 -13 57
-58 57 -93 0 -15 -11 -38 -25 -51 -55 -56 -165 -12 -165 65 0 22 9 41 29 61
31 31 64 36 104 18z m-166 -304 c30 -35 30 -86 0 -121 -44 -51 -133 -31 -158
35 -12 31 5 86 34 107 32 23 96 12 124 -21z m-233 -255 c34 -12 60 -64 52
-103 -10 -48 -33 -67 -83 -67 -79 0 -117 65 -81 136 18 38 65 52 112 34z
m-175 -299 c42 -40 43 -90 2 -132 -33 -33 -58 -36 -101 -14 -89 46 -56 170 46
174 12 1 36 -12 53 -28z"/>
</g>
</svg>
